<svg width="16" height="16" enable-background="new 0 0 24 24" viewBox="0 0 24 24" xmlns="http://www.w3.org/2000/svg">
<path d="m3.5 7h-2c-.827 0-1.5-.673-1.5-1.5v-2c0-.827.673-1.5 1.5-1.5h2c.827 0 1.5.673 1.5 1.5v2c0 .827-.673 1.5-1.5 1.5zm-2-4c-.275 0-.5.225-.5.5v2c0 .275.225.5.5.5h2c.275 0 .5-.225.5-.5v-2c0-.275-.225-.5-.5-.5z"/>
<path d="m3.5 15h-2c-.827 0-1.5-.673-1.5-1.5v-2c0-.827.673-1.5 1.5-1.5h2c.827 0 1.5.673 1.5 1.5v2c0 .827-.673 1.5-1.5 1.5zm-2-4c-.275 0-.5.225-.5.5v2c0 .275.225.5.5.5h2c.275 0 .5-.225.5-.5v-2c0-.275-.225-.5-.5-.5z"/>
<path d="m3.5 23h-2c-.827 0-1.5-.673-1.5-1.5v-2c0-.827.673-1.5 1.5-1.5h2c.827 0 1.5.673 1.5 1.5v2c0 .827-.673 1.5-1.5 1.5zm-2-4c-.275 0-.5.225-.5.5v2c0 .275.225.5.5.5h2c.275 0 .5-.225.5-.5v-2c0-.275-.225-.5-.5-.5z"/>
<path d="m23.5 5h-16c-.276 0-.5-.224-.5-.5s.224-.5.5-.5h16c.276 0 .5.224.5.5s-.224.5-.5.5z"/>
<path d="m23.5 13h-16c-.276 0-.5-.224-.5-.5s.224-.5.5-.5h16c.276 0 .5.224.5.5s-.224.5-.5.5z"/>
<path d="m23.5 21h-16c-.276 0-.5-.224-.5-.5s.224-.5.5-.5h16c.276 0 .5.224.5.5s-.224.5-.5.5z"/>
</svg>